<mxfile host="app.diagrams.net" modified="2021-12-13T06:22:13.965Z" agent="5.0 (Macintosh; Intel Mac OS X 10_15_7) AppleWebKit/537.36 (KHTML, like Gecko) Chrome/96.0.4664.45 Safari/537.36" etag="Edi6wxqfqKAi8FeaVr9t" version="15.9.4" type="github">
  <diagram id="wEiQNwf5t-SFA_vae5P0" name="Page-1">
    <mxGraphModel dx="2000" dy="1072" grid="1" gridSize="10" guides="1" tooltips="1" connect="1" arrows="1" fold="1" page="1" pageScale="1" pageWidth="1100" pageHeight="850" math="0" shadow="0">
      <root>
        <mxCell id="0" />
        <mxCell id="1" parent="0" />
        <mxCell id="pSh_HEOzqFHDmxAUYpVA-1" value="开始" style="rounded=1;whiteSpace=wrap;html=1;fillColor=#b0e3e6;gradientDirection=north;strokeColor=#0e8088;glass=0;shadow=0;sketch=1;" parent="1" vertex="1">
          <mxGeometry x="270" y="120" width="90" height="30" as="geometry" />
        </mxCell>
      </root>
    </mxGraphModel>
  </diagram>
</mxfile>
